<svg width="129" height="132" viewBox="0 0 129 132" fill="none" xmlns="http://www.w3.org/2000/svg">
<path d="M65.5039 79.9053H47.5019C37.559 79.9053 29.4984 87.9659 29.4984 97.9088C29.4985 107.852 37.5591 115.912 47.5019 115.912C57.4445 115.912 65.5038 107.851 65.5039 97.9088V79.9053ZM81.0525 97.9088C81.0524 116.438 66.0315 131.459 47.5019 131.459C28.9721 131.459 13.9499 116.439 13.9498 97.9088C13.9498 79.3789 28.972 64.3567 47.5019 64.3567H65.5039V37.0281H81.0525V64.3567H106.16C106.16 72.9439 99.1984 79.9053 90.6112 79.9053H81.0525V97.9088Z" fill="white"/>
<path opacity="0.2" d="M64.2894 37.0046C77.5034 37.0046 81.0018 51.1462 81.0993 58.2171V37.0046H64.2894Z" fill="black"/>
<path opacity="0.2" d="M69.494 79.8738C78.5393 79.8738 80.934 89.5461 81.0008 94.3823V79.8738H69.494Z" fill="black"/>
<g clip-path="url(#clip0_422_462)">
<path d="M114.52 63.4636C114.52 72.5264 107.173 79.8732 98.1107 79.8732H64.8912V75.4706C64.8912 68.8393 70.267 63.4636 76.8983 63.4636H114.52Z" fill="white"/>
</g>
<path d="M32.366 44.043C32.4952 45.9561 34.1507 47.4023 36.0638 47.2732C37.9769 47.1441 39.4231 45.4885 39.294 43.5754C39.1648 41.6623 37.5093 40.2161 35.5962 40.3453C33.6831 40.4744 32.2369 42.1299 32.366 44.043ZM33.4153 8.03345L32.7658 8.07729L35.1805 43.8531L35.83 43.8092L36.4795 43.7654L34.0648 7.98961L33.4153 8.03345Z" fill="white"/>
<path d="M24.5251 1.11597L74.6088 0.919963L116.572 28.2607L66.4882 28.4567L24.5251 1.11597Z" fill="white"/>
<path d="M84.2835 36.0916L63.6881 36.1726L46.4313 24.9289L48.1094 19.2385L65.368 30.4828L85.9616 30.4012L84.2835 36.0916Z" fill="white"/>
<defs>
<clipPath id="clip0_422_462">
<rect width="78.4459" height="15.6091" fill="white" transform="translate(50.4816 64.2644)"/>
</clipPath>
</defs>
</svg>
