<svg width="129" height="132" viewBox="0 0 129 132" fill="none" xmlns="http://www.w3.org/2000/svg">
<path d="M65.5039 79.9053H47.5019C37.559 79.9053 29.4984 87.9659 29.4984 97.9088C29.4985 107.852 37.5591 115.912 47.5019 115.912C57.4445 115.912 65.5038 107.851 65.5039 97.9088V79.9053ZM81.0525 97.9088C81.0524 116.438 66.0315 131.459 47.5019 131.459C28.9721 131.459 13.9499 116.439 13.9498 97.9088C13.9498 79.3789 28.972 64.3567 47.5019 64.3567H65.5039V37.0281H81.0525V64.3567H106.16C106.16 72.9439 99.1984 79.9053 90.6112 79.9053H81.0525V97.9088Z" fill="#0E7490"/>
<path opacity="0.2" d="M64.2896 37.0046C77.5035 37.0046 81.0019 51.1462 81.0994 58.2171V37.0046H64.2896Z" fill="black"/>
<path opacity="0.2" d="M69.4939 79.8738C78.5392 79.8738 80.9339 89.5461 81.0006 94.3823V79.8738H69.4939Z" fill="black"/>
<g clip-path="url(#clip0_101_100)">
<path d="M114.52 63.4636C114.52 72.5264 107.174 79.8732 98.1108 79.8732H64.8914V75.4706C64.8914 68.8393 70.2671 63.4636 76.8984 63.4636H114.52Z" fill="#0E7490"/>
</g>
<path d="M32.366 44.0428C32.4952 45.9559 34.1507 47.4021 36.0638 47.2729C37.9769 47.1438 39.4231 45.4883 39.294 43.5752C39.1648 41.6621 37.5093 40.2159 35.5962 40.345C33.6831 40.4741 32.2369 42.1297 32.366 44.0428ZM33.4153 8.0332L32.7658 8.07704L35.1805 43.8528L35.83 43.809L36.4795 43.7651L34.0648 7.98937L33.4153 8.0332Z" fill="#0E7490"/>
<path d="M24.5251 1.11572L74.6088 0.919719L116.572 28.2605L66.4882 28.4565L24.5251 1.11572Z" fill="#0E7490"/>
<path d="M84.2835 36.0913L63.6881 36.1723L46.4313 24.9286L48.1094 19.2383L65.368 30.4826L85.9616 30.401L84.2835 36.0913Z" fill="#0E7490"/>
<defs>
<clipPath id="clip0_101_100">
<rect width="78.4459" height="15.6091" fill="white" transform="translate(50.4817 64.2644)"/>
</clipPath>
</defs>
</svg>
