<svg width="475" height="459" viewBox="0 0 475 459" fill="none" xmlns="http://www.w3.org/2000/svg">
<rect width="475" height="459" rx="102" fill="#4F46E5"/>
<path d="M242.389 269.1H198.997C175.031 269.1 155.602 288.529 155.602 312.495C155.602 336.461 175.032 355.89 198.997 355.89C222.963 355.889 242.389 336.46 242.389 312.495V269.1ZM279.867 312.495C279.866 357.158 243.661 393.363 198.997 393.364C154.334 393.364 118.125 357.159 118.125 312.495C118.125 267.831 154.333 231.622 198.997 231.622H242.389V165.75H279.867V231.622H340.384C340.384 252.32 323.605 269.1 302.907 269.1H279.867V312.495Z" fill="white"/>
<path opacity="0.2" d="M239.461 165.695C271.312 165.695 279.744 199.781 279.979 216.824V165.695H239.461Z" fill="black"/>
<path opacity="0.2" d="M252.006 269.025C273.808 269.025 279.581 292.339 279.741 303.995V269.025H252.006Z" fill="black"/>
<g clip-path="url(#clip0_101_39)">
<path d="M360.536 229.47C360.536 251.315 342.827 269.024 320.983 269.024H240.912V258.412C240.912 242.428 253.869 229.47 269.853 229.47H360.536Z" fill="white"/>
</g>
<path d="M162.514 182.658C162.825 187.269 166.816 190.755 171.427 190.444C176.038 190.133 179.524 186.142 179.213 181.531C178.901 176.92 174.911 173.434 170.3 173.745C165.689 174.056 162.203 178.047 162.514 182.658ZM165.043 95.8618L163.477 95.9675L169.298 182.2L170.863 182.095L172.429 181.989L166.608 95.7562L165.043 95.8618Z" fill="white"/>
<path d="M143.615 79.1868L264.335 78.7143L365.481 144.616L244.761 145.088L143.615 79.1868Z" fill="white"/>
<path d="M242.061 149.973L291.699 149.778L287.655 163.491L238.011 163.686L196.417 136.585L200.461 122.87L242.061 149.973Z" fill="white"/>
<defs>
<clipPath id="clip0_101_39">
<rect width="189.083" height="37.6237" fill="white" transform="translate(206.179 231.4)"/>
</clipPath>
</defs>
</svg>
