<svg width="390" height="394" viewBox="0 0 390 394" fill="none" xmlns="http://www.w3.org/2000/svg">
<g filter="url(#filter0_i_450_3216)">
<path d="M389.5 90.5C389.5 116.734 368.234 138 342 138C342 138 364.5 138 321.5 138C278.5 138 278.5 171.5 278.5 171.5V134.5C278.5 108.266 291.766 87 318 87H320.5C330.441 87 338.5 78.9411 338.5 69C338.5 59.0589 330.441 51 320.5 51H69C59.0589 51 51 59.0589 51 69C51 78.9411 59.0589 87 69 87H211C237.234 87 258.5 108.266 258.5 134.5V346.5C258.5 372.734 237.234 394 211 394H166C139.766 394 118.5 372.734 118.5 346.5C118.5 346.5 118.5 254 118.5 213C118.5 172 79.3716 162 79.3716 162H122C148.234 162 169.5 183.266 169.5 209.5V324C169.5 334.493 178.007 343 188.5 343C198.993 343 207.5 334.493 207.5 324V138H47.5C21.2665 138 0 116.734 0 90.5V47.5C0 21.2665 21.2665 0 47.5 0H342C368.234 0 389.5 21.2665 389.5 47.5V90.5Z" fill="#00B7E9"/>
</g>
<g filter="url(#filter1_i_450_3216)">
<path d="M51.046 86.5098H211.046C237.28 86.5098 258.546 107.776 258.546 134.01V346.01C258.546 372.243 237.28 393.51 211.046 393.51H166.046C204.046 393.51 209.546 359.51 207.546 342.51V137.51H47.546C21.3125 137.51 0.0460038 116.243 0.0460038 90.0098V50.1971C-0.0170196 49.071 -0.0136261 48.0029 0.0460038 47.0098V50.1971C0.818495 63.9993 11.5694 86.5098 51.046 86.5098Z" fill="#007EC3"/>
</g>
<defs>
<filter id="filter0_i_450_3216" x="0" y="0" width="389.5" height="394" filterUnits="userSpaceOnUse" color-interpolation-filters="sRGB">
<feFlood flood-opacity="0" result="BackgroundImageFix"/>
<feBlend mode="normal" in="SourceGraphic" in2="BackgroundImageFix" result="shape"/>
<feColorMatrix in="SourceAlpha" type="matrix" values="0 0 0 0 0 0 0 0 0 0 0 0 0 0 0 0 0 0 127 0" result="hardAlpha"/>
<feOffset dy="6"/>
<feComposite in2="hardAlpha" operator="arithmetic" k2="-1" k3="1"/>
<feColorMatrix type="matrix" values="0 0 0 0 0.176471 0 0 0 0 0.94902 0 0 0 0 0.933333 0 0 0 1 0"/>
<feBlend mode="normal" in2="shape" result="effect1_innerShadow_450_3216"/>
</filter>
<filter id="filter1_i_450_3216" x="0" y="47.0098" width="258.546" height="346.5" filterUnits="userSpaceOnUse" color-interpolation-filters="sRGB">
<feFlood flood-opacity="0" result="BackgroundImageFix"/>
<feBlend mode="normal" in="SourceGraphic" in2="BackgroundImageFix" result="shape"/>
<feColorMatrix in="SourceAlpha" type="matrix" values="0 0 0 0 0 0 0 0 0 0 0 0 0 0 0 0 0 0 127 0" result="hardAlpha"/>
<feOffset dy="6"/>
<feComposite in2="hardAlpha" operator="arithmetic" k2="-1" k3="1"/>
<feColorMatrix type="matrix" values="0 0 0 0 0 0 0 0 0 0 0 0 0 0 0 0 0 0 0.25 0"/>
<feBlend mode="normal" in2="shape" result="effect1_innerShadow_450_3216"/>
</filter>
</defs>
</svg>
