<svg width="198" height="191" viewBox="0 0 198 191" fill="none" xmlns="http://www.w3.org/2000/svg">
<rect width="197.065" height="190.427" rx="42.3172" fill="#0E7490"/>
<path d="M100.561 111.643H82.5592C72.6163 111.643 64.5556 119.704 64.5556 129.647C64.5557 139.589 72.6164 147.65 82.5592 147.65C92.5018 147.65 100.561 139.589 100.561 129.647V111.643ZM116.11 129.647C116.11 148.176 101.089 163.197 82.5592 163.197C64.0293 163.197 49.0072 148.176 49.0071 129.647C49.0071 111.117 64.0293 96.0945 82.5592 96.0945H100.561V68.7659H116.11V96.0945H141.217C141.217 104.682 134.256 111.643 125.668 111.643H116.11V129.647Z" fill="white"/>
<path opacity="0.2" d="M99.3468 68.7424C112.561 68.7424 116.059 82.884 116.157 89.9548V68.7424H99.3468Z" fill="black"/>
<path opacity="0.2" d="M104.551 111.612C113.596 111.612 115.991 121.284 116.058 126.12V111.612H104.551Z" fill="black"/>
<g clip-path="url(#clip0_101_39)">
<path d="M149.578 95.2014C149.578 104.264 142.231 111.611 133.168 111.611H99.9485V107.208C99.9485 100.577 105.324 95.2014 111.956 95.2014H149.578Z" fill="white"/>
</g>
<path d="M67.4229 75.7806C67.552 77.6937 69.2076 79.1399 71.1207 79.0107C73.0338 78.8816 74.48 77.2261 74.3508 75.313C74.2217 73.3999 72.5662 71.9537 70.6531 72.0828C68.74 72.2119 67.2938 73.8675 67.4229 75.7806ZM68.4722 39.771L67.8227 39.8148L70.2374 75.5906L70.8869 75.5468L71.5364 75.5029L69.1217 39.7272L68.4722 39.771Z" fill="white"/>
<path d="M59.5822 32.8533L109.666 32.6573L151.629 59.998L101.545 60.194L59.5822 32.8533Z" fill="white"/>
<path d="M119.341 67.8289L98.7452 67.9099L81.4884 56.6662L83.1665 50.9758L100.425 62.2201L121.019 62.1385L119.341 67.8289Z" fill="white"/>
<defs>
<clipPath id="clip0_101_39">
<rect width="78.4459" height="15.6091" fill="white" transform="translate(85.5389 96.0022)"/>
</clipPath>
</defs>
</svg>
