<svg width="311" height="317" viewBox="0 0 311 317" fill="none" xmlns="http://www.w3.org/2000/svg">
<path d="M157.889 192.6H114.497C90.5314 192.6 71.1022 212.029 71.1022 235.995C71.1024 259.961 90.5315 279.39 114.497 279.39C138.463 279.389 157.889 259.96 157.889 235.995V192.6ZM195.367 235.995C195.366 280.658 159.161 316.863 114.497 316.864C69.8336 316.864 33.6248 280.659 33.6245 235.995C33.6245 191.331 69.8335 155.122 114.497 155.122H157.889V89.25H195.367V155.122H255.884C255.884 175.82 239.105 192.6 218.407 192.6H195.367V235.995Z" fill="white"/>
<path opacity="0.2" d="M154.961 89.1947C186.812 89.1947 195.244 123.281 195.479 140.324V89.1947H154.961Z" fill="black"/>
<path opacity="0.2" d="M167.506 192.525C189.308 192.525 195.081 215.839 195.241 227.495V192.525H167.506Z" fill="black"/>
<g clip-path="url(#clip0_101_70)">
<path d="M276.036 152.97C276.036 174.815 258.327 192.524 236.483 192.524H156.412V181.912C156.412 165.928 169.369 152.97 185.353 152.97H276.036Z" fill="white"/>
</g>
<path d="M78.0136 106.158C78.3249 110.769 82.3154 114.255 86.9266 113.944C91.5379 113.633 95.0237 109.642 94.7125 105.031C94.4012 100.42 90.4108 96.9339 85.7995 97.2452C81.1883 97.5564 77.7024 101.547 78.0136 106.158ZM80.5427 19.3618L78.9772 19.4675L84.7975 105.7L86.3631 105.595L87.9286 105.489L82.1082 19.2562L80.5427 19.3618Z" fill="white"/>
<path d="M59.1145 2.68677L179.834 2.21433L280.981 68.1155L160.261 68.588L59.1145 2.68677Z" fill="white"/>
<path d="M157.561 73.4735L207.199 73.2785L203.155 86.9915L153.511 87.1858L111.917 60.0851L115.961 46.3702L157.561 73.4735Z" fill="white"/>
<defs>
<clipPath id="clip0_101_70">
<rect width="189.083" height="37.6237" fill="white" transform="translate(121.679 154.9)"/>
</clipPath>
</defs>
</svg>
