<svg width="127" height="127" viewBox="0 0 127 127" fill="none" xmlns="http://www.w3.org/2000/svg">
<rect width="31.771" height="42.6669" rx="3.91263" transform="matrix(-1.22095 -0.323979 -0.165363 -0.613986 74.3428 107.342)" fill="white"/>
<rect width="31.6384" height="40.3865" rx="3.91263" transform="matrix(-0.951351 0.81816 0.161413 0.632053 99.3884 54.7449)" fill="white"/>
<rect width="68.5887" height="68.5887" rx="6.95579" transform="matrix(-0.770977 0.636864 0.968655 0.24841 53.6597 18.9402)" fill="white"/>
<path d="M10.861 98.3084C10.9113 101.509 13.5468 104.063 16.7478 104.013C19.9487 103.963 22.5028 101.327 22.4526 98.1265C22.4023 94.9256 19.7668 92.3715 16.5658 92.4217C13.3649 92.4719 10.8108 95.1075 10.861 98.3084ZM16.0889 62.0283L15.0022 62.0454L15.5701 98.2345L16.6568 98.2175L17.7435 98.2004L17.1756 62.0113L16.0889 62.0283Z" fill="white"/>
</svg>
