<svg width="311" height="317" viewBox="0 0 311 317" fill="none" xmlns="http://www.w3.org/2000/svg">
<path d="M157.889 192.6H114.498C90.5316 192.6 71.1024 212.029 71.1024 235.995C71.1027 259.961 90.5318 279.39 114.498 279.39C138.463 279.389 157.889 259.96 157.889 235.995V192.6ZM195.367 235.995C195.367 280.658 159.161 316.863 114.498 316.864C69.8339 316.864 33.625 280.659 33.6248 235.995C33.6248 191.331 69.8337 155.122 114.498 155.122H157.889V89.25H195.367V155.122H255.885C255.885 175.82 239.105 192.6 218.407 192.6H195.367V235.995Z" fill="#4F46E5"/>
<path opacity="0.2" d="M154.962 89.1947C186.812 89.1947 195.245 123.281 195.48 140.324V89.1947H154.962Z" fill="black"/>
<path opacity="0.2" d="M167.506 192.525C189.308 192.525 195.081 215.839 195.241 227.495V192.525H167.506Z" fill="black"/>
<g clip-path="url(#clip0_101_100)">
<path d="M276.036 152.97C276.036 174.815 258.328 192.524 236.483 192.524H156.412V181.912C156.412 165.928 169.37 152.97 185.353 152.97H276.036Z" fill="#4F46E5"/>
</g>
<path d="M78.0139 106.158C78.3251 110.769 82.3156 114.255 86.9269 113.944C91.5381 113.633 95.024 109.642 94.7127 105.031C94.4015 100.42 90.411 96.9339 85.7998 97.2452C81.1885 97.5564 77.7027 101.547 78.0139 106.158ZM80.543 19.3618L78.9775 19.4675L84.7978 105.7L86.3633 105.595L87.9288 105.489L82.1085 19.2562L80.543 19.3618Z" fill="#4F46E5"/>
<path d="M59.1147 2.68677L179.835 2.21433L280.981 68.1155L160.261 68.588L59.1147 2.68677Z" fill="#4F46E5"/>
<path d="M157.562 73.4735L207.199 73.2785L203.156 86.9915L153.512 87.1858L111.917 60.0851L115.962 46.3702L157.562 73.4735Z" fill="#4F46E5"/>
<defs>
<clipPath id="clip0_101_100">
<rect width="189.083" height="37.6237" fill="white" transform="translate(121.679 154.9)"/>
</clipPath>
</defs>
</svg>
