<svg width="198" height="191" viewBox="0 0 198 191" fill="none" xmlns="http://www.w3.org/2000/svg">
<rect width="197.065" height="190.427" rx="42.3172" fill="#4F46E5"/>
<rect width="42.6971" height="57.34" rx="5.25819" transform="matrix(-1.22095 -0.323979 -0.165363 -0.613986 112.912 153.928)" fill="#F59E0B"/>
<rect width="42.5189" height="54.2755" rx="5.25819" transform="matrix(-0.951351 0.81816 0.161413 0.632053 146.57 83.2434)" fill="#FBBF24"/>
<rect width="92.1765" height="92.1765" rx="9.34789" transform="matrix(-0.770977 0.636864 0.968655 0.24841 85.1154 35.1255)" fill="white"/>
<path d="M27.5981 141.789C27.6656 146.09 31.2075 149.523 35.5093 149.455C39.811 149.388 43.2435 145.846 43.176 141.544C43.1085 137.242 39.5665 133.81 35.2648 133.877C30.9631 133.945 27.5306 137.487 27.5981 141.789ZM34.6238 93.0317L33.1634 93.0547L33.9266 141.689L35.387 141.666L36.8474 141.643L36.0842 93.0088L34.6238 93.0317Z" fill="white"/>
</svg>
